<?xml version="1.0" standalone="no"?>
<!DOCTYPE svg PUBLIC "-//W3C//DTD SVG 20010904//EN"
 "http://www.w3.org/TR/2001/REC-SVG-20010904/DTD/svg10.dtd">
<svg version="1.0" xmlns="http://www.w3.org/2000/svg"
 width="800.000000pt" height="600.000000pt" viewBox="0 0 800.000000 600.000000"
 preserveAspectRatio="xMidYMid meet">

<g transform="translate(0.000000,600.000000) scale(0.100000,-0.100000)"
fill="#000000" stroke="none">
<path d="M1 5963 c0 -35 1 -36 10 -14 5 14 15 31 21 38 8 10 6 13 -11 13 -18
0 -21 -6 -20 -37z"/>
<path d="M375 5967 c28 -18 77 -53 110 -78 83 -62 112 -76 127 -61 16 16 1 39
-69 116 l-52 56 -83 0 -83 0 50 -33z"/>
<path d="M850 5979 c15 -26 -8 -62 -56 -91 -33 -19 -35 -23 -29 -58 5 -32 3
-38 -14 -43 -33 -8 -25 -29 38 -108 75 -96 78 -100 102 -216 28 -134 31 -202
34 -788 3 -432 6 -517 19 -554 9 -24 16 -54 16 -67 0 -17 4 -22 15 -18 11 5
15 -2 16 -27 0 -19 4 -43 8 -54 5 -11 9 55 10 155 1 196 20 711 26 721 3 3 5
35 6 70 2 71 23 117 60 136 13 7 32 22 42 34 10 12 19 20 21 18 38 -50 55 -83
64 -124 20 -92 33 -600 43 -1685 5 -591 11 -1086 12 -1100 11 -77 31 -87 86
-41 l34 28 -17 124 c-30 208 -35 256 -46 494 -24 514 -9 1098 39 1487 11 86
17 165 15 175 -3 11 6 50 20 87 14 38 26 83 26 100 0 18 4 36 9 41 5 6 16 48
25 95 34 174 47 218 66 223 10 3 21 -1 24 -9 8 -21 35 -511 45 -809 9 -282 6
-1900 -3 -2065 -9 -156 -28 -343 -37 -367 -4 -12 -17 -24 -28 -28 -11 -3 -22
-14 -24 -23 -4 -14 -10 28 -10 64 0 6 -31 11 -77 11 -69 1 -80 -1 -100 -22
-24 -26 -24 -6 -33 -960 -2 -280 -8 -572 -12 -647 l-8 -138 492 0 c270 0 491
2 491 4 0 3 -20 45 -45 95 -48 96 -72 207 -62 283 5 40 44 128 61 141 6 4 28
5 48 1 30 -4 60 3 142 35 57 23 117 41 133 41 16 0 50 -13 76 -30 26 -16 50
-30 53 -30 3 0 14 9 26 20 31 28 49 25 104 -18 27 -21 56 -37 64 -35 11 3 20
-11 29 -44 14 -49 70 -164 117 -243 15 -25 24 -42 19 -38 -4 4 -15 -1 -24 -11
-9 -10 -22 -20 -29 -22 -7 -2 -29 -26 -50 -54 -21 -27 -53 -60 -71 -72 l-34
-23 1247 0 1246 0 0 24 c0 14 5 28 10 31 6 4 10 -7 10 -24 0 -17 5 -31 10 -31
6 0 10 21 10 46 0 27 4 43 10 39 6 -3 10 -24 10 -46 0 -21 5 -39 10 -39 6 0
10 18 10 41 0 24 4 38 10 34 6 -3 10 -22 10 -41 0 -19 5 -34 10 -34 6 0 10 11
10 24 0 14 4 28 10 31 6 4 10 -7 10 -24 0 -17 5 -31 10 -31 6 0 10 9 10 20 0
11 5 20 11 20 6 0 9 -9 6 -20 -6 -22 18 -29 26 -7 4 9 6 9 6 0 1 -10 116 -12
502 -13 558 0 537 -3 602 69 41 46 132 223 222 435 65 153 67 160 60 215 -9
65 -9 112 0 159 5 29 8 31 21 17 20 -20 126 -20 219 0 98 21 142 19 235 -11
45 -14 118 -29 163 -34 107 -11 384 -67 421 -86 16 -8 31 -14 33 -14 1 0 3
306 3 680 l0 680 -23 5 c-24 6 -28 11 -70 87 -16 30 -22 50 -16 54 6 4 8 30 5
68 -3 33 -11 117 -17 186 -6 69 -19 157 -29 195 -23 87 -41 206 -46 308 -2 43
-11 124 -19 180 -17 113 -13 251 10 327 30 100 35 189 21 351 -8 85 -24 189
-35 230 -12 41 -29 100 -38 132 -9 31 -19 57 -23 57 -4 0 -21 -7 -36 -15 -16
-8 -44 -15 -61 -15 -18 0 -54 -6 -80 -12 -37 -10 -47 -10 -50 0 -6 17 -50 15
-57 -3 -6 -18 -37 -20 -54 -3 -9 9 -18 8 -39 -2 l-28 -13 35 -8 c19 -5 60 -11
90 -14 75 -8 152 -61 204 -140 37 -56 40 -64 47 -165 4 -58 12 -123 18 -145
15 -58 15 -116 1 -335 -15 -240 -15 -264 0 -370 14 -103 15 -134 5 -183 -6
-31 -3 -47 19 -91 35 -68 41 -110 26 -177 -10 -47 -22 -77 -71 -165 -9 -18 -7
-27 12 -53 12 -17 28 -31 34 -31 6 0 35 -13 65 -28 43 -22 56 -34 58 -54 5
-38 -65 -76 -171 -94 -45 -8 -95 -19 -112 -24 -16 -5 -64 -11 -105 -13 -87 -5
-131 8 -172 54 -31 34 -74 38 -119 12 -42 -25 -54 -70 -35 -128 18 -51 22
-180 6 -190 -7 -4 1 -23 20 -48 37 -50 40 -113 10 -170 -25 -46 -25 -69 -2
-83 10 -7 24 -30 30 -53 7 -22 19 -41 26 -41 17 0 36 -73 36 -135 0 -39 -5
-51 -32 -75 -30 -28 -33 -29 -56 -14 -30 20 -56 11 -47 -16 5 -17 2 -20 -20
-20 -24 0 -26 3 -21 25 6 22 3 25 -23 25 -23 0 -30 -5 -36 -27 -3 -14 -15 -38
-26 -51 -23 -30 -24 -48 -4 -68 8 -9 15 -23 15 -32 0 -22 -37 -82 -49 -82 -6
0 -21 -16 -34 -35 l-24 -36 -6 163 c-2 90 0 198 5 240 9 72 8 79 -15 120 -37
64 -55 229 -33 294 20 60 21 110 1 121 -11 7 -16 36 -19 128 -5 143 -21 277
-42 363 -9 35 -13 74 -10 87 4 16 0 30 -13 42 -10 10 -31 49 -46 86 -25 63
-26 70 -11 86 20 22 20 60 1 85 -8 11 -18 42 -21 70 -8 58 -47 106 -87 106
-13 0 -44 11 -69 25 -24 13 -86 40 -138 59 -226 81 -410 162 -410 178 0 4 14
49 31 100 l31 93 -7 230 c-8 306 -14 436 -21 447 -3 5 0 15 6 23 16 19 4 69
-13 58 -8 -4 -8 -1 1 10 16 19 17 113 2 182 -19 89 -60 267 -91 395 -17 69
-32 136 -34 150 -4 29 -46 175 -69 239 -19 51 -19 54 -7 46 5 -3 24 -48 41
-101 36 -108 51 -123 19 -18 -60 195 -309 562 -421 620 -16 8 -26 19 -23 23 2
5 -3 15 -12 22 -12 10 -14 10 -9 2 11 -19 2 -16 -51 15 -52 31 -135 46 -152
29 -8 -8 -11 -7 -11 4 0 9 -3 10 -8 3 -11 -18 -49 -26 -58 -13 -5 9 -9 8 -13
-4 -6 -15 -12 -14 -53 12 -25 16 -48 28 -50 25 -3 -2 -30 3 -62 11 -46 12 -71
13 -124 5 -36 -6 -71 -15 -77 -19 -5 -5 -28 -12 -49 -16 -50 -9 -136 -51 -136
-68 0 -6 -14 -21 -30 -33 -49 -34 -119 -103 -170 -168 -48 -61 -120 -164 -120
-172 0 -2 -22 -50 -50 -107 -27 -56 -53 -118 -56 -137 -4 -19 -10 -39 -14 -45
-11 -15 -96 -278 -120 -375 -12 -47 -33 -123 -47 -170 -15 -47 -27 -107 -27
-133 -1 -27 -7 -51 -14 -55 -9 -6 -11 -41 -6 -143 3 -74 7 -150 8 -169 2 -19
0 -39 -4 -45 -14 -17 -16 -105 -3 -91 4 4 8 13 9 19 0 7 2 20 2 30 1 11 7 15
13 11 8 -4 9 -34 5 -93 -8 -115 -7 -154 5 -162 5 -3 9 -26 8 -50 -1 -24 1 -56
5 -71 10 -33 -2 -36 -35 -9 -20 16 -24 30 -28 97 -3 61 -6 72 -12 51 -9 -33 5
-133 21 -152 18 -21 16 -87 -3 -116 -14 -21 -28 -28 -69 -32 -28 -4 -58 -2
-67 2 -10 6 -20 4 -29 -5 -10 -11 -5 -15 28 -25 39 -12 40 -13 23 -32 -35 -38
-73 -50 -139 -43 -73 7 -239 -8 -305 -29 -26 -8 -61 -12 -82 -8 -32 5 -41 1
-72 -30 -33 -33 -35 -39 -35 -99 0 -57 -3 -66 -23 -77 -13 -7 -36 -31 -51 -54
-22 -35 -26 -49 -21 -82 5 -33 -1 -55 -30 -117 -19 -42 -35 -83 -35 -90 0 -7
-6 -24 -13 -38 -8 -15 -17 -55 -20 -90 -6 -49 -13 -70 -33 -91 -22 -23 -24
-29 -13 -52 9 -20 9 -43 1 -96 -7 -39 -12 -97 -12 -130 0 -53 -3 -61 -18 -61
-21 0 -52 -30 -52 -49 0 -7 8 -26 17 -42 16 -27 16 -32 -7 -103 -17 -57 -21
-84 -15 -118 4 -23 7 -54 7 -68 1 -32 -26 -127 -58 -207 -29 -74 -31 -139 -5
-190 12 -25 21 -70 25 -133 l6 -95 -20 32 c-11 18 -22 44 -26 57 -10 42 -36
58 -73 45 -28 -10 -32 -15 -26 -36 8 -33 -12 -102 -42 -141 l-25 -34 26 -48
c31 -57 32 -73 6 -110 -17 -23 -18 -33 -9 -59 12 -34 6 -85 -12 -108 -14 -16
-63 -17 -92 -2 -41 23 -58 51 -53 93 2 21 2 45 -1 53 -8 21 -82 55 -107 49
-42 -11 -76 -49 -85 -96 -19 -103 -46 -138 -125 -161 -58 -17 -135 36 -167
117 -18 46 -35 342 -64 1119 -8 215 -22 545 -30 735 -21 478 -22 1177 -2 1755
10 264 20 507 23 540 8 92 25 185 34 185 11 0 30 -59 34 -102 2 -18 5 -40 9
-48 3 -8 8 -33 12 -54 6 -34 36 -75 56 -76 12 0 20 33 29 105 4 39 15 108 25
154 12 58 14 95 8 120 -5 20 -5 59 -2 86 4 28 8 71 8 96 1 33 7 51 22 65 44
39 72 95 66 133 -5 38 -55 154 -69 159 -5 2 -17 21 -27 41 -17 36 -17 40 -1
81 19 49 70 100 100 100 10 0 22 5 25 10 4 7 -232 10 -700 10 l-706 0 11 -21z
m347 -209 c16 0 27 -9 36 -32 23 -55 29 -106 14 -115 -7 -4 -17 -26 -22 -48
-9 -35 -15 -41 -46 -49 -30 -7 -45 -5 -83 14 -54 27 -78 59 -79 106 -1 50 19
80 66 94 23 7 48 21 55 32 10 14 17 17 25 9 6 -6 21 -11 34 -11z m150 -437
c-5 -13 -14 -23 -19 -23 -12 0 -10 24 4 38 9 9 8 12 -6 12 -9 0 -14 4 -11 10
4 6 13 5 24 -2 16 -9 17 -16 8 -35z m-107 -8 c0 -13 -4 -14 -20 -5 -11 6 -20
13 -20 15 0 3 9 5 20 5 11 0 20 -7 20 -15z m4038 -39 c-7 -7 -19 -13 -27 -12
-7 1 -16 -6 -18 -14 -4 -13 -3 -13 6 0 9 13 12 13 20 1 7 -11 10 -10 18 4 12
20 60 17 55 -4 -2 -8 3 -11 11 -8 10 4 13 -1 9 -19 -2 -14 0 -24 7 -24 15 0
33 -47 33 -86 0 -17 4 -37 10 -45 7 -10 9 -8 5 8 -4 20 -3 21 15 12 18 -10 20
-9 15 5 -3 8 -2 18 3 21 5 3 12 -11 15 -32 12 -79 18 -88 53 -85 28 3 32 0 32
-22 0 -14 -5 -28 -11 -32 -9 -5 -10 1 -5 20 4 18 3 25 -4 21 -14 -9 -13 -41 3
-57 19 -19 29 -48 14 -42 -13 5 -18 -46 -6 -56 4 -3 10 -16 13 -30 7 -24 6
-23 -13 4 -11 17 -18 35 -15 40 3 6 -1 4 -8 -5 -12 -15 -18 -15 -45 -4 -27 11
-97 21 -113 15 -3 -1 -12 -3 -20 -5 -157 -31 -176 -38 -196 -76 -34 -66 -17
-70 86 -19 30 15 89 32 130 39 95 15 116 7 201 -74 43 -40 64 -54 67 -45 5 14
31 -66 36 -108 1 -13 9 -28 17 -33 8 -5 9 -9 3 -9 -13 0 -25 -58 -14 -65 10
-6 0 -97 -11 -110 -11 -11 -12 -38 -1 -31 5 3 6 -8 4 -25 -2 -16 -10 -29 -16
-29 -13 0 -46 -35 -46 -50 0 -17 19 -11 30 10 16 30 32 25 18 -6 -8 -17 -8
-28 -2 -32 6 -4 11 -16 11 -27 2 -29 8 -53 16 -61 17 -17 4 -80 -32 -165 -40
-92 -87 -169 -102 -169 -5 0 -9 -6 -9 -12 0 -17 -108 -103 -157 -125 -21 -10
-44 -24 -51 -30 -19 -18 -24 -16 -17 7 4 11 2 20 -4 20 -6 0 -11 -4 -11 -10 0
-5 -5 -10 -11 -10 -6 0 -32 -15 -58 -34 -25 -18 -57 -37 -71 -40 l-25 -7 25
22 25 22 -25 -8 c-14 -4 -30 -13 -36 -21 -13 -16 -28 -19 -19 -4 10 16 -21 11
-35 -5 -10 -12 -30 -15 -94 -11 -125 6 -197 30 -331 110 -128 76 -196 135
-238 206 -33 58 -75 204 -83 290 -6 59 -3 77 21 139 28 74 72 145 121 197 16
17 41 49 56 71 l28 41 142 -4 143 -4 -35 30 c-19 17 -35 36 -35 43 0 21 -101
31 -151 14 -24 -8 -44 -11 -44 -6 0 4 12 36 27 70 l27 62 65 -6 c62 -6 132
-25 147 -40 15 -15 25 -6 22 20 -4 33 -50 59 -121 68 -47 6 -77 33 -48 43 11
4 11 6 0 13 -11 7 -11 9 3 9 10 0 21 14 29 38 20 61 89 161 165 238 57 58 79
74 110 79 21 3 47 11 58 16 13 8 21 8 25 0 5 -7 17 -8 38 -2 21 6 35 5 42 -2
8 -8 11 -8 11 0 0 6 11 8 25 5 15 -2 33 2 43 11 15 13 37 22 65 26 4 0 2 -5
-5 -13z m-1075 -126 c-3 -12 -8 -19 -11 -16 -5 6 5 36 12 36 2 0 2 -9 -1 -20z
m140 -132 c-20 -29 -40 -55 -43 -58 -9 -8 -63 -93 -83 -130 -25 -45 -47 -77
-47 -67 0 28 196 324 207 313 2 -2 -13 -28 -34 -58z m1147 29 c0 -5 -4 -5 -10
-2 -5 3 -10 14 -10 23 0 15 2 15 10 2 5 -8 10 -19 10 -23z m-1043 -109 c-9
-13 -47 -69 -84 -125 -37 -56 -69 -100 -72 -98 -4 5 87 149 132 208 31 40 50
52 24 15z m1208 -258 c3 -5 1 -10 -4 -10 -6 0 -11 5 -11 10 0 6 2 10 4 10 3 0
8 -4 11 -10z m-1109 -9 c-3 -4 -10 -21 -16 -36 -6 -15 -13 -25 -16 -22 -6 6
23 67 32 67 3 0 3 -4 0 -9z m1109 -31 c3 -5 1 -10 -4 -10 -6 0 -11 5 -11 10 0
6 2 10 4 10 3 0 8 -4 11 -10z m-1420 -30 c-1 -11 -4 -22 -7 -25 -4 -5 -4 34 1
43 4 8 7 -1 6 -18z m430 10 c3 -5 1 -10 -4 -10 -6 0 -11 5 -11 10 0 6 2 10 4
10 3 0 8 -4 11 -10z m-52 -20 c6 -22 0 -25 -22 -11 -7 5 -10 14 -7 20 11 17
23 13 29 -9z m137 -10 c0 -9 -31 -23 -37 -17 -2 2 -1 11 3 20 5 15 34 13 34
-3z m-544 -48 c-18 -16 -18 -16 -6 6 6 13 14 21 18 18 3 -4 -2 -14 -12 -24z
m-56 -51 c-29 -42 -36 -39 -8 3 13 19 24 33 26 31 3 -2 -6 -18 -18 -34z m-32
-67 c-14 -14 -16 -14 -22 1 -3 9 -2 13 3 10 5 -3 13 0 16 6 4 5 10 8 13 4 3
-3 -1 -12 -10 -21z m-47 -22 c-5 -10 -18 -25 -27 -33 -16 -12 -17 -12 -9 1 11
17 38 50 43 50 1 0 -2 -8 -7 -18z m-73 -132 c-1 -38 -6 -70 -10 -70 -10 0 -10
31 -2 94 10 67 15 56 12 -24z m1788 4 c-6 -16 -36 -19 -36 -4 0 6 8 23 18 38
17 26 17 26 20 3 2 -12 1 -29 -2 -37z m24 -71 c0 -7 -11 -13 -25 -13 -20 0
-25 5 -25 24 0 13 6 26 13 29 13 5 37 -20 37 -40z m-48 -25 c7 -14 4 -18 -12
-18 -14 0 -20 7 -20 23 0 27 13 44 19 25 2 -7 8 -21 13 -30z m-1774 -19 c-3
-34 -18 -52 -18 -20 0 21 10 51 16 51 2 0 3 -14 2 -31z m46 -375 c3 -8 2 -12
-4 -9 -6 3 -10 10 -10 16 0 14 7 11 14 -7z m-58 -80 c-4 -14 -9 -24 -12 -21
-3 2 -2 17 2 31 3 15 9 25 11 22 3 -3 2 -17 -1 -32z m695 -120 c58 -35 126
-71 150 -80 24 -9 50 -24 57 -33 8 -10 29 -16 57 -16 25 0 45 -3 45 -7 0 -3
17 -4 38 -2 48 6 122 5 144 -2 9 -2 19 0 23 6 3 5 11 10 17 10 7 0 6 -6 -2
-15 -18 -22 -5 -18 22 6 30 27 132 70 136 58 2 -5 8 -9 13 -9 6 0 7 5 3 12 -4
7 -3 8 5 4 6 -4 23 2 39 12 l27 20 0 -49 c0 -44 -5 -56 -46 -107 -25 -31 -57
-75 -71 -97 -14 -22 -34 -49 -44 -60 -11 -12 -28 -32 -39 -45 l-20 -24 27 20
c14 10 34 31 43 47 14 24 35 37 35 21 0 -3 -17 -28 -37 -55 -27 -33 -45 -48
-62 -49 l-24 0 22 -24 c25 -27 23 -52 -9 -81 -25 -22 -42 -11 -38 27 2 21 -2
32 -12 35 -12 4 -12 2 -2 -5 10 -7 10 -11 -3 -22 -10 -9 -14 -22 -11 -36 5
-18 0 -28 -21 -41 -16 -10 -33 -25 -40 -33 -10 -13 -12 -11 -13 12 0 15 -4 30
-10 33 -15 10 -11 -37 5 -59 14 -19 15 -19 36 5 l21 24 -6 -40 -6 -40 13 42
c6 23 16 45 21 50 9 8 7 -8 -12 -87 -6 -25 -17 -79 -24 -120 -11 -67 -13 -70
-16 -35 -4 39 -4 40 -17 15 -12 -22 -12 -17 -8 44 5 55 3 67 -7 61 -10 -6 -11
-29 -7 -95 4 -48 2 -102 -3 -121 -15 -51 -29 -173 -44 -390 -7 -107 -19 -205
-25 -218 -7 -12 -14 -21 -15 -19 -2 1 0 50 5 108 4 58 7 137 7 175 -1 54 -3
43 -9 -50 -19 -261 -26 -311 -47 -356 -11 -24 -28 -77 -37 -116 -10 -40 -19
-73 -22 -73 -3 0 -2 28 2 63 4 34 4 59 1 56 -4 -4 -12 -53 -17 -108 -6 -56
-17 -121 -24 -144 l-14 -42 4 60 c17 229 17 235 6 235 -7 0 -10 -4 -7 -8 6
-10 -22 -238 -34 -277 -8 -23 -9 -15 -5 35 3 36 7 115 10 175 3 93 3 100 -5
45 -5 -36 -13 -83 -18 -105 -14 -57 -14 -11 -1 100 11 84 13 514 3 524 -2 2
-4 -90 -4 -206 0 -211 -7 -333 -20 -333 -3 0 -12 61 -20 135 -12 125 -10 263
6 368 4 24 2 37 -5 37 -6 0 -11 -15 -11 -32 0 -18 -3 -57 -7 -87 -11 -96 -20
-24 -12 104 5 86 3 127 -5 143 -11 20 -12 15 -8 -37 2 -33 1 -68 -4 -78 -6
-12 -11 12 -15 72 -4 50 -16 123 -28 163 -19 69 -19 108 0 96 5 -3 6 -11 3
-17 -5 -8 -4 -9 3 -2 6 6 14 31 17 56 5 37 4 48 -9 52 -17 7 -20 -4 -4 -20 7
-7 7 -13 1 -17 -12 -7 -47 73 -57 129 -9 48 -1 43 19 -11 8 -21 15 -33 15 -26
1 8 -11 44 -26 80 -14 37 -28 78 -29 92 -2 14 -19 71 -38 127 -19 55 -39 127
-46 160 -6 32 -16 72 -21 90 -16 51 -12 185 5 224 l16 34 -5 -40 c-3 -22 -8
-71 -10 -110 l-5 -70 15 70 c9 39 16 94 17 123 2 48 4 52 16 35 13 -17 14 -16
10 9 -6 32 -15 36 143 -58z m-428 33 c25 -27 35 -54 26 -68 -5 -8 -9 -29 -9
-46 0 -38 -30 -48 -30 -10 -1 12 -2 48 -3 80 -1 31 -1 57 1 57 2 0 9 -6 15
-13z m-2386 -89 c-2 -13 -4 -3 -4 22 0 25 2 35 4 23 2 -13 2 -33 0 -45z m3862
-142 c-4 -5 -5 -14 -3 -21 3 -7 1 -16 -4 -19 -5 -3 -14 27 -21 66 -10 60 -9
74 4 94 8 13 16 34 17 46 1 13 4 -17 8 -67 3 -49 3 -94 -1 -99z m-1500 62 c-5
-10 -18 -18 -28 -18 -18 0 -18 2 -2 45 l16 46 12 -28 c7 -18 8 -34 2 -45z
m1276 12 l-14 -55 4 48 c3 27 8 53 11 58 13 21 12 1 -1 -51z m533 -63 c-6 -85
-34 -197 -51 -197 -5 0 -7 12 -3 28 3 15 10 67 16 115 12 108 19 137 32 137 7
0 9 -29 6 -83z m-579 -45 c-6 -20 -23 -59 -36 -87 l-25 -50 56 60 c31 33 56
55 56 49 0 -15 -101 -125 -110 -119 -13 8 -63 -76 -52 -87 7 -7 15 -1 25 18
16 31 95 109 102 102 3 -2 -22 -32 -54 -66 -33 -33 -62 -70 -66 -82 -3 -11
-11 -18 -16 -14 -5 3 -9 2 -8 -3 2 -15 -13 -53 -22 -53 -5 0 -8 15 -6 32 2 22
10 36 25 44 12 6 19 14 15 17 -3 4 -12 2 -20 -5 -23 -19 -28 1 -6 25 39 42
121 210 144 297 1 3 4 -5 6 -18 2 -12 -1 -39 -8 -60z m52 21 c-19 -33 -41 -57
-46 -51 -3 3 6 20 20 37 29 34 41 41 26 14z m-122 -89 c-44 -95 -74 -144 -90
-144 -16 0 -10 17 21 63 17 25 30 52 30 61 0 9 4 16 8 16 4 0 21 22 37 50 16
27 30 48 32 46 2 -1 -15 -43 -38 -92z m558 34 c-3 -8 -6 -5 -6 6 -1 11 2 17 5
13 3 -3 4 -12 1 -19z m-210 -20 c-3 -8 -6 -5 -6 6 -1 11 2 17 5 13 3 -3 4 -12
1 -19z m-2506 -141 c-13 -13 -15 11 -4 40 7 16 8 15 11 -6 2 -13 -1 -28 -7
-34z m2175 -37 c-20 -22 -36 -44 -36 -49 0 -5 -3 -17 -7 -27 -4 -12 -3 -15 5
-10 15 9 5 -20 -20 -56 -21 -30 -23 -42 -6 -32 7 4 2 -9 -10 -30 -12 -20 -24
-49 -27 -65 -2 -15 -12 -41 -20 -58 -17 -34 -45 -51 -45 -28 0 8 8 15 18 16
10 0 12 3 5 6 -18 7 -16 23 1 23 24 0 29 20 11 40 -9 10 -12 20 -7 24 6 3 12
0 15 -6 3 -8 7 -6 12 7 5 11 15 28 23 38 8 9 13 20 10 22 -3 3 -14 -7 -24 -22
-11 -15 -25 -28 -33 -28 -14 0 -57 -152 -46 -163 3 -3 5 3 5 13 0 10 3 16 6
12 13 -13 -32 -191 -47 -182 -5 4 -9 -4 -10 -17 0 -13 -7 -41 -14 -63 l-14
-40 6 50 c6 55 62 325 93 450 l20 80 -4 -57 c-3 -43 -1 -58 8 -58 14 0 71 78
63 86 -2 3 -12 -7 -21 -21 -9 -14 -21 -23 -26 -20 -16 10 -11 25 8 26 10 0 12
3 5 6 -7 2 -13 9 -13 15 0 6 7 8 15 4 10 -4 27 15 55 64 34 58 60 88 79 90 2
0 -13 -18 -33 -40z m-8 -50 c-7 -10 -14 -17 -17 -15 -4 4 18 35 25 35 2 0 -1
-9 -8 -20z m-164 -79 c-2 -9 -10 -56 -18 -106 -48 -290 -123 -633 -125 -575
-2 36 61 382 88 484 16 61 31 134 35 161 5 48 5 49 -9 23 -8 -14 -19 -57 -24
-93 -13 -86 -26 -99 -18 -17 7 68 37 139 60 139 8 0 13 -7 11 -16z m52 -68
c-10 -10 -19 5 -10 18 6 11 8 11 12 0 2 -7 1 -15 -2 -18z m-6 -93 c0 -5 -4
-10 -10 -10 -5 0 -10 5 -10 10 0 6 5 10 10 10 6 0 10 -4 10 -10z m-140 -118
c-6 -23 -28 -151 -49 -286 -22 -135 -44 -253 -51 -263 -13 -22 -9 23 26 246
22 145 72 356 81 347 2 -2 -1 -22 -7 -44z m-487 -16 c-8 -11 -33 22 -33 43 0
11 6 9 19 -9 11 -13 17 -29 14 -34z m610 24 c-3 -11 -10 -23 -16 -27 -7 -4 -8
0 -4 11 4 10 7 22 7 27 0 5 4 9 9 9 5 0 7 -9 4 -20z m-156 -32 c-3 -8 -6 -5
-6 6 -1 11 2 17 5 13 3 -3 4 -12 1 -19z m-30 -100 c-3 -8 -6 -5 -6 6 -1 11 2
17 5 13 3 -3 4 -12 1 -19z m-10 -50 c-3 -7 -5 -2 -5 12 0 14 2 19 5 13 2 -7 2
-19 0 -25z m-1687 -48 c0 -5 -2 -10 -4 -10 -3 0 -8 5 -11 10 -3 6 -1 10 4 10
6 0 11 -4 11 -10z m2908 -966 c72 -50 -38 -177 -207 -238 -42 -15 -70 -34 -98
-65 -30 -34 -42 -41 -48 -31 -5 8 -4 11 2 7 6 -4 13 6 17 23 4 21 17 37 41 51
19 12 35 24 35 28 0 3 19 27 43 52 23 25 50 55 59 67 11 13 24 19 37 15 17 -4
20 -2 15 12 -5 11 5 29 32 56 21 21 41 39 44 39 3 0 16 -7 28 -16z m216 -90
c10 -4 16 -18 16 -40 0 -29 -7 -39 -52 -72 -29 -21 -69 -45 -88 -52 -19 -7
-48 -22 -63 -33 -16 -11 -45 -28 -65 -39 -20 -11 -28 -16 -17 -13 11 4 35 9
54 12 19 4 42 14 53 25 20 20 49 23 65 7 9 -9 11 -7 7 7 -4 15 7 26 49 49 47
25 57 27 71 16 18 -15 21 -44 6 -72 -10 -18 -112 -89 -128 -89 -4 0 -28 -15
-55 -34 -39 -28 -44 -34 -28 -39 11 -3 22 1 25 8 6 17 93 58 106 50 5 -3 10
-19 10 -35 0 -53 -103 -124 -203 -140 -63 -10 -73 -6 -72 26 0 29 22 46 49 38
14 -5 18 -2 13 9 -3 9 -1 18 6 21 7 2 2 5 -9 5 -12 1 -48 -13 -80 -30 -53 -28
-64 -30 -118 -24 l-58 7 26 25 c15 13 32 21 39 17 9 -5 9 -4 0 7 -18 18 -16
30 2 23 9 -4 15 0 15 8 0 18 33 45 48 40 7 -2 12 1 12 7 0 5 17 18 38 28 27
13 32 19 19 21 -39 8 -128 -51 -191 -125 -58 -69 -63 -72 -103 -73 -45 0 -53
9 -28 30 8 7 15 19 15 26 0 8 3 14 8 14 4 0 18 23 32 51 14 28 40 64 58 80 18
16 30 29 27 29 -2 0 3 9 13 20 20 24 146 87 192 96 16 4 30 11 30 16 0 6 9 8
21 5 14 -4 19 -2 15 8 -3 8 8 19 27 28 28 14 32 14 44 -1 11 -16 12 -16 13 1
0 11 16 25 43 37 45 20 67 23 91 14z m-2409 -129 c33 -8 83 -14 111 -15 28 0
65 -3 82 -6 l30 -6 -18 -32 c-10 -17 -21 -42 -24 -56 -4 -14 5 -1 18 28 14 28
28 53 33 53 4 1 18 3 29 4 12 1 26 5 33 9 16 10 14 1 -9 -44 -11 -22 -20 -43
-20 -47 1 -4 13 15 27 42 14 28 30 53 36 57 16 10 30 -2 19 -15 -14 -18 -64
-148 -59 -153 2 -3 12 17 22 43 31 82 56 126 66 116 6 -6 -3 -43 -25 -99 -18
-49 -37 -105 -40 -124 -3 -19 10 9 29 64 38 108 62 153 75 140 5 -5 -6 -50
-26 -102 -19 -52 -33 -99 -32 -104 2 -6 17 28 33 76 31 93 49 126 61 113 4 -4
-5 -46 -20 -93 -15 -47 -26 -87 -24 -89 2 -2 17 34 32 81 19 54 34 84 44 84
11 0 13 -8 7 -37 -4 -21 -9 -63 -10 -93 -3 -75 -63 -502 -80 -570 l-14 -55 4
95 c3 52 7 120 10 150 2 30 -7 -6 -20 -80 -14 -74 -23 -143 -21 -152 2 -10 0
-18 -4 -18 -17 0 -21 65 -11 150 6 46 11 91 10 100 -1 18 -27 -104 -38 -180
-7 -45 -10 -51 -16 -32 -5 16 -10 20 -15 12 -4 -7 -13 -9 -20 -5 -12 8 -10
110 5 260 3 28 -6 -13 -19 -89 -14 -77 -22 -145 -19 -150 3 -6 0 -5 -8 2 -15
14 -15 105 2 225 6 43 9 80 7 82 -2 3 -12 -50 -22 -118 -26 -180 -27 -183 -39
-162 -5 10 -7 55 -4 104 l6 86 -18 -95 c-22 -115 -36 -101 -28 28 l5 87 -14
-65 c-7 -36 -13 -77 -14 -92 0 -16 -4 -28 -10 -28 -12 0 -12 5 -12 90 1 51 -1
58 -7 35 -5 -16 -9 -47 -10 -67 -2 -56 -21 -46 -21 10 0 47 -2 50 -38 66 -21
10 -76 58 -126 112 -49 52 -101 100 -115 107 -15 7 -26 21 -26 32 0 34 -28 64
-58 61 -28 -3 -74 35 -63 53 4 5 -3 12 -14 16 -26 8 -26 46 -1 102 22 47 38
57 136 89 82 27 173 30 260 9z m1845 -139 c0 -3 -4 -8 -10 -11 -5 -3 -10 -1
-10 4 0 6 5 11 10 11 6 0 10 -2 10 -4z m-2133 -153 c17 -15 17 -43 1 -43 -7 0
-24 9 -38 20 -15 13 -18 18 -7 14 13 -5 16 -2 11 10 -7 19 13 18 33 -1z m2373
-43 c0 -5 -4 -10 -9 -10 -6 0 -13 5 -16 10 -3 6 1 10 9 10 9 0 16 -4 16 -10z
m-3343 -52 c-3 -7 -5 -2 -5 12 0 14 2 19 5 13 2 -7 2 -19 0 -25z m263 -808 c0
-5 -6 -12 -12 -16 -7 -4 -10 -4 -6 1 4 4 3 14 -4 22 -8 11 -7 12 6 7 9 -3 16
-10 16 -14z"/>
<path d="M5326 5185 c-3 -8 -1 -15 3 -15 5 0 11 7 15 15 3 8 1 15 -3 15 -5 0
-11 -7 -15 -15z"/>
<path d="M5490 4670 c6 -11 16 -18 21 -14 7 4 7 -1 0 -15 -7 -11 -13 -21 -15
-21 -2 0 -30 14 -62 31 -54 29 -65 31 -129 26 -88 -7 -107 -14 -100 -38 4 -12
-1 -23 -14 -31 -30 -18 -26 -35 9 -36 17 0 30 4 30 9 0 5 -8 9 -17 9 -15 1
-14 4 6 20 31 27 46 25 47 -4 1 -17 -2 -23 -12 -19 -8 3 -14 1 -14 -4 0 -14
273 -10 288 5 7 6 23 12 35 13 20 1 20 2 -3 8 -14 5 -29 4 -34 -1 -6 -4 -17
-8 -25 -8 -12 1 -10 5 7 19 27 23 28 33 4 54 -25 23 -35 21 -22 -3z m-102 -52
c-2 -6 -10 -14 -16 -16 -7 -2 -10 2 -6 12 7 18 28 22 22 4z"/>
<path d="M5191 4224 c-2 -32 -25 -48 -51 -34 -28 15 -102 9 -108 -9 -3 -9 0
-11 9 -5 12 7 12 5 0 -9 -17 -21 -31 -22 -31 -2 0 8 -7 15 -15 15 -19 0 -19
-7 -1 -26 17 -16 111 -20 121 -4 3 6 14 10 24 10 32 0 63 33 58 60 -4 22 -4
22 -6 4z"/>
<path d="M5597 4183 c-4 -3 -7 -16 -6 -27 0 -19 1 -19 10 3 10 24 8 36 -4 24z"/>
<path d="M4875 4169 c-10 -15 -4 -17 37 -11 21 2 35 8 32 13 -7 13 -61 11 -69
-2z"/>
<path d="M5048 4000 c-9 -6 -15 -17 -12 -25 7 -18 -4 -37 -18 -29 -6 4 -5 10
3 15 11 7 10 9 -5 9 -12 0 -16 5 -12 15 7 20 3 20 -109 -15 -54 -16 -108 -30
-120 -30 -12 0 -28 -7 -35 -15 -11 -13 -7 -15 24 -15 20 0 36 -4 36 -8 0 -5
12 -15 28 -23 15 -8 29 -16 32 -20 19 -21 112 -52 156 -52 53 0 140 33 180 69
12 11 38 34 58 52 35 30 41 60 10 48 -7 -3 -35 1 -61 9 -71 20 -136 27 -155
15z m-98 -102 c8 0 47 3 87 6 42 4 74 3 77 -2 10 -16 -40 -41 -70 -36 -16 3
-30 0 -35 -8 -7 -10 -9 -10 -9 -1 0 9 -7 10 -22 4 -25 -9 -114 12 -135 32 -9
9 0 11 40 9 29 -2 59 -4 67 -4z"/>
<path d="M4509 3459 c-6 -137 23 -196 156 -329 52 -51 95 -102 95 -112 0 -21
-10 -23 -30 -5 -12 10 -12 9 0 -6 9 -13 10 -21 3 -28 -8 -8 -30 12 -75 67 -34
43 -76 92 -91 109 l-29 30 20 -30 c11 -16 52 -68 91 -115 39 -47 71 -89 71
-94 0 -4 -10 -6 -21 -3 -17 4 -19 3 -10 -6 12 -12 15 -37 4 -37 -5 0 -26 25
-48 56 -22 31 -44 58 -49 61 -9 6 38 -63 73 -107 25 -31 27 -44 4 -36 -14 6
-14 4 2 -14 15 -17 16 -23 6 -29 -9 -6 -10 -11 -2 -15 14 -9 14 -91 1 -117 -6
-10 -8 -19 -6 -19 11 0 36 60 36 84 0 14 5 28 10 31 14 9 12 -22 -4 -67 -17
-48 -10 -50 10 -3 8 19 14 66 14 107 0 88 9 148 22 148 6 0 8 -35 4 -87 l-5
-88 15 80 c11 58 12 85 5 97 -16 25 -16 25 42 17 28 -4 60 -8 70 -8 9 -1 17
-9 17 -18 0 -15 2 -16 10 -3 12 19 1 25 -72 40 -52 10 -64 18 -151 103 -85 83
-157 169 -157 187 0 4 50 -43 110 -103 61 -60 110 -104 110 -99 0 6 -22 29
-50 52 -50 42 -67 70 -31 50 38 -20 34 -10 -7 20 -23 17 -42 35 -42 41 0 5 -5
7 -10 4 -6 -3 -13 2 -17 12 -4 10 -15 29 -25 43 -10 14 -27 56 -38 94 -23 82
-30 91 -31 45z m31 -130 c0 -6 -4 -7 -10 -4 -5 3 -10 11 -10 16 0 6 5 7 10 4
6 -3 10 -11 10 -16z"/>
<path d="M4530 3243 c0 -6 26 -40 58 -75 31 -35 72 -81 89 -103 18 -21 35 -37
37 -34 3 3 -30 43 -72 90 -43 46 -86 95 -95 109 -9 13 -17 19 -17 13z"/>
<path d="M4789 3117 c12 -14 20 -30 16 -36 -4 -7 7 -11 32 -10 21 1 30 3 21 6
-21 5 -24 20 -5 26 6 2 0 3 -15 1 -16 -2 -28 0 -28 4 0 4 -10 13 -22 21 -23
14 -23 13 1 -12z"/>
<path d="M4566 3094 c9 -17 39 -56 66 -85 l50 -54 -49 63 c-26 35 -56 73 -66
85 -18 21 -18 21 -1 -9z"/>
<path d="M4930 3105 c0 -15 35 -34 60 -34 24 1 24 1 -3 9 -16 5 -35 14 -43 21
-8 6 -14 8 -14 4z"/>
<path d="M4776 3070 c3 -14 8 -26 9 -28 4 -5 189 -31 193 -28 2 2 -32 12 -75
21 -81 18 -112 30 -126 49 -5 6 -5 0 -1 -14z"/>
<path d="M4888 3063 c7 -3 16 -2 19 1 4 3 -2 6 -13 5 -11 0 -14 -3 -6 -6z"/>
<path d="M4956 3051 c14 -15 94 -27 94 -15 0 5 -15 9 -32 10 -18 0 -42 4 -53
9 -16 6 -17 5 -9 -4z"/>
<path d="M5130 3035 c-8 -9 -8 -15 -2 -15 12 0 26 19 19 26 -2 2 -10 -2 -17
-11z"/>
<path d="M5025 2990 c3 -5 8 -10 11 -10 2 0 4 5 4 10 0 6 -5 10 -11 10 -5 0
-7 -4 -4 -10z"/>
<path d="M4590 2984 c0 -6 7 -19 16 -30 14 -18 14 -18 3 6 -14 31 -19 36 -19
24z"/>
<path d="M4804 2933 c0 -32 -3 -74 -7 -93 l-8 -35 15 34 c17 35 21 117 8 139
-5 7 -8 -13 -8 -45z"/>
<path d="M4840 2929 c7 -57 -10 -138 -59 -267 -17 -46 -31 -89 -31 -95 1 -21
80 196 94 258 13 58 11 141 -3 150 -4 2 -4 -19 -1 -46z"/>
<path d="M5046 2945 c8 -37 14 -45 14 -19 0 10 -5 26 -10 34 -8 11 -9 7 -4
-15z"/>
<path d="M4956 2930 c8 -43 14 -51 14 -19 0 13 -5 31 -10 39 -7 11 -8 5 -4
-20z"/>
<path d="M5010 2955 c0 -5 5 -17 10 -25 5 -8 10 -10 10 -5 0 6 -5 17 -10 25
-5 8 -10 11 -10 5z"/>
<path d="M4927 2915 c7 -49 13 -58 13 -19 0 16 -5 36 -10 44 -6 10 -7 2 -3
-25z"/>
<path d="M4989 2918 c4 -28 6 -29 9 -9 2 13 0 27 -5 32 -6 6 -7 -3 -4 -23z"/>
<path d="M4901 2894 c0 -11 3 -14 6 -6 3 7 2 16 -1 19 -3 4 -6 -2 -5 -13z"/>
<path d="M5011 2864 c0 -11 3 -14 6 -6 3 7 2 16 -1 19 -3 4 -6 -2 -5 -13z"/>
<path d="M4892 2830 c0 -14 2 -19 5 -12 2 6 2 18 0 25 -3 6 -5 1 -5 -13z"/>
<path d="M4856 2774 c-4 -14 -5 -28 -3 -31 3 -2 8 8 11 23 4 14 5 28 3 31 -3
2 -8 -8 -11 -23z"/>
<path d="M5002 2760 c0 -14 2 -19 5 -12 2 6 2 18 0 25 -3 6 -5 1 -5 -13z"/>
<path d="M4842 2632 c-23 -75 -44 -155 -46 -177 -3 -22 3 -9 13 30 10 39 32
117 50 173 18 57 31 106 28 108 -2 2 -22 -58 -45 -134z"/>
<path d="M4902 2729 c-7 -23 -11 -43 -8 -46 6 -6 28 65 24 77 -2 6 -9 -8 -16
-31z"/>
<path d="M4932 2719 c-7 -23 -11 -43 -8 -46 6 -6 28 65 24 77 -2 6 -9 -8 -16
-31z"/>
<path d="M4968 2735 c-18 -82 -18 -88 -3 -47 9 24 15 51 13 60 -3 11 -7 6 -10
-13z"/>
<path d="M5026 2708 c-3 -13 -5 -32 -5 -43 1 -11 5 -2 10 19 10 42 6 62 -5 24z"/>
<path d="M4728 2698 c-7 -13 -11 -26 -10 -30 1 -4 -9 -15 -23 -24 -14 -9 -25
-21 -25 -27 0 -6 13 2 30 18 16 15 28 31 27 34 -1 3 4 16 11 29 7 12 10 22 8
22 -3 0 -11 -10 -18 -22z"/>
<path d="M4993 2705 c-3 -9 -3 -18 -1 -21 3 -3 8 4 11 16 6 23 -1 27 -10 5z"/>
<path d="M4669 2653 l-24 -26 27 19 c15 10 28 22 28 27 0 12 -5 8 -31 -20z"/>
<path d="M4876 2634 c-4 -14 -5 -28 -3 -31 3 -2 8 8 11 23 4 14 5 28 3 31 -3
2 -8 -8 -11 -23z"/>
<path d="M4903 2604 c-6 -27 -10 -51 -8 -52 6 -6 27 78 23 90 -2 6 -9 -11 -15
-38z"/>
<path d="M4942 2620 c0 -14 2 -19 5 -12 2 6 2 18 0 25 -3 6 -5 1 -5 -13z"/>
<path d="M4801 2604 c0 -11 3 -14 6 -6 3 7 2 16 -1 19 -3 4 -6 -2 -5 -13z"/>
<path d="M5012 2600 c0 -14 2 -19 5 -12 2 6 2 18 0 25 -3 6 -5 1 -5 -13z"/>
<path d="M4966 2564 c-3 -26 -4 -49 -2 -52 3 -2 8 17 11 43 4 25 5 48 3 51 -3
2 -8 -17 -12 -42z"/>
<path d="M4850 2540 c-7 -28 -10 -53 -8 -55 3 -3 10 18 16 47 7 28 11 53 8 55
-2 2 -9 -19 -16 -47z"/>
<path d="M5002 2535 c0 -16 2 -22 5 -12 2 9 2 23 0 30 -3 6 -5 -1 -5 -18z"/>
<path d="M4735 2520 c-4 -17 -5 -34 -2 -36 2 -3 7 10 11 27 8 42 0 50 -9 9z"/>
<path d="M4875 2480 c-4 -23 -5 -43 -2 -46 2 -3 7 14 11 37 4 23 5 44 2 46 -2
2 -7 -14 -11 -37z"/>
<path d="M4993 2450 c0 -30 2 -43 4 -27 2 15 2 39 0 55 -2 15 -4 2 -4 -28z"/>
<path d="M4952 2460 c0 -19 2 -27 5 -17 2 9 2 25 0 35 -3 9 -5 1 -5 -18z"/>
<path d="M4832 2445 c0 -16 2 -22 5 -12 2 9 2 23 0 30 -3 6 -5 -1 -5 -18z"/>
<path d="M4911 2444 c0 -11 3 -14 6 -6 3 7 2 16 -1 19 -3 4 -6 -2 -5 -13z"/>
<path d="M4857 2358 c-4 -35 -9 -130 -12 -213 -3 -82 -8 -163 -11 -180 -2 -17
-1 -25 5 -20 4 6 14 113 20 239 11 224 10 299 -2 174z"/>
<path d="M4898 2355 c-4 -38 -10 -149 -12 -245 l-5 -175 14 220 c15 219 16
333 3 200z"/>
<path d="M4940 2389 c0 -38 -17 -335 -24 -419 -3 -34 -2 -47 3 -35 10 25 36
473 27 482 -3 3 -6 -9 -6 -28z"/>
<path d="M4782 2385 c0 -16 2 -22 5 -12 2 9 2 23 0 30 -3 6 -5 -1 -5 -18z"/>
<path d="M4822 2390 c0 -14 2 -19 5 -12 2 6 2 18 0 25 -3 6 -5 1 -5 -13z"/>
<path d="M4812 2265 c-8 -232 -8 -358 0 -321 5 22 7 121 5 220 -1 100 -4 145
-5 101z"/>
<path d="M4743 2005 c0 -33 2 -45 4 -27 2 18 2 45 0 60 -2 15 -4 0 -4 -33z"/>
<path d="M5337 3033 c-4 -3 -7 -11 -7 -17 0 -6 5 -5 12 2 6 6 9 14 7 17 -3 3
-9 2 -12 -2z"/>
<path d="M5190 2655 c-6 -31 -10 -59 -7 -61 2 -2 9 21 16 52 6 32 9 59 7 61
-2 3 -10 -21 -16 -52z"/>
<path d="M4536 1079 c-9 -29 -16 -57 -15 -63 0 -6 9 16 20 49 10 32 16 61 14
63 -2 2 -11 -20 -19 -49z"/>
<path d="M4431 1034 c0 -11 3 -14 6 -6 3 7 2 16 -1 19 -3 4 -6 -2 -5 -13z"/>
<path d="M4471 1004 c0 -11 3 -14 6 -6 3 7 2 16 -1 19 -3 4 -6 -2 -5 -13z"/>
<path d="M4421 974 c0 -11 3 -14 6 -6 3 7 2 16 -1 19 -3 4 -6 -2 -5 -13z"/>
<path d="M4512 970 c0 -14 2 -19 5 -12 2 6 2 18 0 25 -3 6 -5 1 -5 -13z"/>
<path d="M4462 950 c0 -14 2 -19 5 -12 2 6 2 18 0 25 -3 6 -5 1 -5 -13z"/>
<path d="M4502 910 c0 -19 2 -27 5 -17 2 9 2 25 0 35 -3 9 -5 1 -5 -18z"/>
<path d="M4411 914 c0 -11 3 -14 6 -6 3 7 2 16 -1 19 -3 4 -6 -2 -5 -13z"/>
<path d="M4362 870 c0 -19 2 -27 5 -17 2 9 2 25 0 35 -3 9 -5 1 -5 -18z"/>
<path d="M4272 860 c0 -14 2 -19 5 -12 2 6 2 18 0 25 -3 6 -5 1 -5 -13z"/>
<path d="M4451 854 c0 -11 3 -14 6 -6 3 7 2 16 -1 19 -3 4 -6 -2 -5 -13z"/>
<path d="M4493 835 c0 -22 2 -30 4 -17 2 12 2 30 0 40 -3 9 -5 -1 -4 -23z"/>
<path d="M4396 799 c-4 -33 -5 -63 -3 -66 3 -2 8 23 12 57 4 34 5 63 2 66 -2
3 -7 -23 -11 -57z"/>
<path d="M4222 825 c0 -16 2 -22 5 -12 2 9 2 23 0 30 -3 6 -5 -1 -5 -18z"/>
<path d="M4262 795 c0 -16 2 -22 5 -12 2 9 2 23 0 30 -3 6 -5 -1 -5 -18z"/>
<path d="M4442 795 c0 -16 2 -22 5 -12 2 9 2 23 0 30 -3 6 -5 -1 -5 -18z"/>
<path d="M4172 780 c0 -14 2 -19 5 -12 2 6 2 18 0 25 -3 6 -5 1 -5 -13z"/>
<path d="M4373 662 c-6 -31 -7 -61 -3 -65 4 -5 11 19 15 53 9 79 2 86 -12 12z"/>
<path d="M6280 5991 c8 -5 39 -12 68 -16 28 -4 52 -11 52 -15 0 -5 17 -12 38
-15 48 -9 96 -23 152 -46 25 -10 63 -23 85 -29 67 -20 95 -34 91 -47 -9 -22
22 -36 64 -29 36 6 116 -15 130 -34 3 -4 23 -10 45 -14 22 -4 61 -14 86 -22
26 -8 69 -19 95 -24 290 -53 422 -80 449 -90 11 -5 49 -11 85 -14 63 -5 167
-24 243 -44 l37 -10 0 229 0 229 -867 0 c-488 0 -861 -4 -853 -9z"/>
<path d="M2530 5134 c-28 -74 14 -155 57 -111 19 18 21 84 4 115 -16 30 -49
28 -61 -4z"/>
<path d="M2055 4410 c-8 -13 3 -153 15 -184 17 -47 28 85 12 147 -12 45 -17
53 -27 37z"/>
<path d="M6052 4390 c0 -14 2 -19 5 -12 2 6 2 18 0 25 -3 6 -5 1 -5 -13z"/>
<path d="M6067 4245 c3 -60 6 -130 7 -155 1 -25 5 -52 8 -60 4 -8 9 -42 13
-75 3 -33 10 -85 15 -115 10 -53 12 -75 24 -206 3 -34 10 -73 15 -88 6 -14 7
-26 2 -26 -5 0 -7 -84 -4 -187 4 -199 8 -213 54 -213 34 0 42 58 27 202 -8 71
-7 117 2 175 6 43 13 88 15 100 2 12 -5 50 -16 83 -11 35 -19 91 -19 128 0 37
-5 110 -12 163 l-12 97 36 60 c20 33 39 69 42 80 4 11 13 26 21 32 19 16 19
30 1 30 -8 0 -16 5 -18 11 -3 9 -22 9 -73 0 -94 -16 -103 -19 -108 -39 -2 -9
-8 12 -14 48 -11 61 -11 59 -6 -45z"/>
<path d="M6510 4301 c0 -5 -10 -11 -22 -13 -16 -3 -9 -7 25 -15 28 -6 63 -7
85 -3 45 10 128 19 202 21 l55 2 -45 8 c-64 11 -300 11 -300 0z"/>
<path d="M6890 4290 c-22 -14 -5 -23 53 -28 41 -3 63 1 93 16 l39 21 -85 0
c-47 1 -92 -3 -100 -9z"/>
<path d="M992 3890 c0 -19 2 -27 5 -17 2 9 2 25 0 35 -3 9 -5 1 -5 -18z"/>
<path d="M3903 3834 c-3 -8 -1 -20 6 -27 8 -8 11 -4 11 16 0 30 -7 35 -17 11z"/>
<path d="M987 3823 c-4 -3 -7 -19 -7 -34 0 -15 -6 -29 -12 -32 -10 -4 -10 -7
0 -18 18 -19 32 4 32 54 0 38 -2 42 -13 30z"/>
<path d="M3901 3774 c0 -11 3 -14 6 -6 3 7 2 16 -1 19 -3 4 -6 -2 -5 -13z"/>
<path d="M967 3693 c-2 -5 -10 -39 -17 -76 -11 -62 -11 -75 6 -123 10 -30 21
-54 25 -54 8 0 16 161 11 218 -4 38 -14 53 -25 35z"/>
<path d="M965 3171 c-3 -5 -1 -12 5 -16 5 -3 10 1 10 9 0 18 -6 21 -15 7z"/>
<path d="M961 2955 c-27 -67 -33 -193 -26 -565 6 -337 9 -381 27 -430 10 -30
22 -68 27 -85 l7 -30 18 27 c26 39 32 127 13 195 -21 79 -26 147 -33 531 -3
184 -10 346 -14 360 l-7 27 -12 -30z"/>
<path d="M935 1752 c-43 -57 -44 -69 -34 -314 5 -128 13 -304 18 -390 5 -86 8
-165 6 -175 -2 -10 -6 -88 -10 -173 -3 -85 -10 -216 -15 -290 -5 -74 -9 -197
-10 -272 l0 -138 100 0 c112 0 113 1 86 76 -13 38 -25 139 -46 409 -6 72 -13
292 -15 490 -5 472 -25 767 -54 797 -3 3 -15 -6 -26 -20z"/>
<path d="M6936 1724 c-11 -8 -30 -14 -43 -14 -18 0 -23 -6 -23 -25 0 -34 82
-89 121 -81 21 4 28 1 32 -16 5 -18 8 -19 22 -8 15 12 15 14 -2 24 -26 14 -56
54 -73 97 -14 35 -16 36 -34 23z"/>
<path d="M0 1468 l0 -43 22 33 c18 28 19 35 7 43 -24 15 -29 10 -29 -33z"/>
<path d="M2 228 c-2 -204 0 -228 14 -228 15 0 16 11 9 98 -4 53 -11 155 -15
227 -6 123 -7 117 -8 -97z"/>
<path d="M7976 423 c-8 -16 -28 -43 -45 -61 -17 -19 -38 -47 -47 -63 -8 -17
-21 -32 -28 -35 -8 -3 -29 -27 -47 -55 -19 -27 -37 -49 -41 -49 -9 0 -18 -8
-98 -80 -30 -27 -58 -50 -62 -50 -5 0 -8 -7 -8 -15 0 -13 29 -15 200 -15 l200
0 0 225 c0 124 -2 225 -5 225 -2 0 -11 -12 -19 -27z"/>
</g>
</svg>
